<svg xmlns="http://www.w3.org/2000/svg" width="155.906" height="26.469" viewBox="0 0 155.906 26.469">
  <metadata><?xpacket begin="﻿" id="W5M0MpCehiHzreSzNTczkc9d"?>
<x:xmpmeta xmlns:x="adobe:ns:meta/" x:xmptk="Adobe XMP Core 5.6-c138 79.159824, 2016/09/14-01:09:01        ">
   <rdf:RDF xmlns:rdf="http://www.w3.org/1999/02/22-rdf-syntax-ns#">
      <rdf:Description rdf:about=""/>
   </rdf:RDF>
</x:xmpmeta>
                                                                                                    
                                                                                                    
                                                                                                    
                                                                                                    
                                                                                                    
                                                                                                    
                                                                                                    
                                                                                                    
                                                                                                    
                                                                                                    
                                                                                                    
                                                                                                    
                                                                                                    
                                                                                                    
                                                                                                    
                                                                                                    
                                                                                                    
                                                                                                    
                                                                                                    
                                                                                                    
                           
<?xpacket end="w"?></metadata>
<defs>
    <style>
      .cls-1 {
        fill: #8bdf04;
        fill-rule: evenodd;
      }
    </style>
  </defs>
  <path id="Resttime" class="cls-1" d="M344.668,79.486V70.7h5.472l6.264,8.784h5.22l-6.8-9.54a8.674,8.674,0,0,0,4.392-2.718,8.188,8.188,0,0,0-.864-10.764,10.08,10.08,0,0,0-6.876-2.178H340.24v25.2h4.428Zm0-21.168h6.444a6.08,6.08,0,0,1,3.852,1.08,3.713,3.713,0,0,1,1.368,3.1,3.836,3.836,0,0,1-1.4,3.132,5.777,5.777,0,0,1-3.78,1.152h-6.48v-8.46Zm37.224,18.036-2.556-2.268a7.259,7.259,0,0,1-5.148,2.268,5.359,5.359,0,0,1-3.636-1.278,5.681,5.681,0,0,1-1.836-3.546h13.968a7.922,7.922,0,0,0,.072-1.224,11.156,11.156,0,0,0-2.394-7.29,8.181,8.181,0,0,0-6.714-2.934,8.625,8.625,0,0,0-6.66,2.88,10.039,10.039,0,0,0-2.628,7.02,9.66,9.66,0,0,0,2.79,7.164,9.483,9.483,0,0,0,6.966,2.772,9.6,9.6,0,0,0,7.776-3.564h0ZM370.3,65.032a4.408,4.408,0,0,1,3.312-1.386,4.279,4.279,0,0,1,3.348,1.4,6.126,6.126,0,0,1,1.476,3.6H368.68A6.2,6.2,0,0,1,370.3,65.032ZM398.739,78.3a5.288,5.288,0,0,0,1.98-4.428,4.672,4.672,0,0,0-.5-2.214,4.424,4.424,0,0,0-1.458-1.6,11.408,11.408,0,0,0-1.818-1.026,21.5,21.5,0,0,0-2.124-.774,0.586,0.586,0,0,1-.18-0.036,1.315,1.315,0,0,1-.18-0.072q-1.4-.467-2.034-0.7a4.58,4.58,0,0,1-1.26-.738,1.43,1.43,0,0,1-.63-1.116,1.726,1.726,0,0,1,.7-1.44,3.152,3.152,0,0,1,1.962-.54,10.531,10.531,0,0,1,5.364,1.8l1.728-3.1a12.466,12.466,0,0,0-6.984-2.16,7.371,7.371,0,0,0-4.842,1.584,5.18,5.18,0,0,0-1.926,4.212,4.993,4.993,0,0,0,.361,1.944,4.492,4.492,0,0,0,.9,1.422,5.723,5.723,0,0,0,1.4,1.026,13.615,13.615,0,0,0,1.566.738q0.7,0.27,1.71.558l0.324,0.108q1.082,0.324,1.548.468a8.98,8.98,0,0,1,1.152.468,2.426,2.426,0,0,1,.954.7,1.478,1.478,0,0,1,.27.882,1.819,1.819,0,0,1-.774,1.566,3.673,3.673,0,0,1-2.178.558,10.285,10.285,0,0,1-6.228-2.34L385.6,77a12.681,12.681,0,0,0,8.064,2.844A8,8,0,0,0,398.739,78.3Zm16.345,0.54V75.274a5.964,5.964,0,0,1-2.7.648,2.084,2.084,0,0,1-2.34-2.376V64.222h5.112V60.478h-5.112v-5.22h-4.356v5.22h-2.412v3.744h2.412V74.23q0,5.581,5.472,5.58a7.867,7.867,0,0,0,3.924-.972h0Zm14.759,0V75.274a5.964,5.964,0,0,1-2.7.648,2.084,2.084,0,0,1-2.34-2.376V64.222h5.112V60.478H424.8v-5.22h-4.356v5.22h-2.412v3.744h2.412V74.23q0,5.581,5.472,5.58a7.864,7.864,0,0,0,3.924-.972h0Zm9.216-21.276v-4.14h-4.68v4.14h4.68Zm-0.144,21.924V60.478h-4.356V79.486h4.356Zm10.044,0V68.794a5.1,5.1,0,0,1,1.116-3.474,3.727,3.727,0,0,1,2.952-1.278,3.5,3.5,0,0,1,2.844,1.206,5.167,5.167,0,0,1,1.008,3.4V79.486h4.356V68.758a5.016,5.016,0,0,1,1.116-3.474,3.775,3.775,0,0,1,2.952-1.242,3.525,3.525,0,0,1,2.844,1.188,5.214,5.214,0,0,1,1.008,3.456v10.8h4.356V67.354a7.613,7.613,0,0,0-1.764-5.364,6.338,6.338,0,0,0-4.9-1.908,7.8,7.8,0,0,0-6.444,3.348,5.85,5.85,0,0,0-5.652-3.348,6.989,6.989,0,0,0-5.8,3.276v-2.88H444.6V79.486h4.356Zm46.332-3.132-2.556-2.268a7.261,7.261,0,0,1-5.148,2.268,5.357,5.357,0,0,1-3.636-1.278,5.672,5.672,0,0,1-1.836-3.546h13.968a8.051,8.051,0,0,0,.072-1.224,11.161,11.161,0,0,0-2.394-7.29,8.182,8.182,0,0,0-6.714-2.934,8.622,8.622,0,0,0-6.66,2.88,10.035,10.035,0,0,0-2.628,7.02,9.656,9.656,0,0,0,2.79,7.164,9.48,9.48,0,0,0,6.966,2.772,9.6,9.6,0,0,0,7.776-3.564h0ZM483.7,65.032a4.405,4.405,0,0,1,3.312-1.386,4.282,4.282,0,0,1,3.348,1.4,6.132,6.132,0,0,1,1.476,3.6h-9.756A6.191,6.191,0,0,1,483.7,65.032Z" transform="translate(-340.25 -53.438)"/>
</svg>
